<svg width="471" height="478" viewBox="0 0 471 478" fill="none" xmlns="http://www.w3.org/2000/svg">
<path d="M360.23 108.728C357.329 107.789 353.745 107.32 349.478 107.32C345.212 107.32 341.628 107.789 338.726 108.728C335.825 109.581 333.137 111.245 330.662 113.72C328.273 116.109 326.481 119.651 325.286 124.344C324.092 128.952 323.494 134.797 323.494 141.88C323.494 148.963 324.092 154.851 325.286 159.544C326.481 164.152 328.273 167.693 330.662 170.168C333.137 172.557 335.825 174.221 338.726 175.16C341.628 176.013 345.212 176.44 349.478 176.44C353.745 176.44 357.329 176.013 360.23 175.16C363.132 174.221 365.777 172.557 368.166 170.168C370.641 167.693 372.476 164.152 373.67 159.544C374.865 154.851 375.462 148.963 375.462 141.88C375.462 134.797 374.865 128.952 373.67 124.344C372.476 119.651 370.641 116.109 368.166 113.72C365.777 111.245 363.132 109.581 360.23 108.728ZM372.39 171.192C367.782 177.251 360.145 180.28 349.478 180.28C338.812 180.28 331.174 177.251 326.566 171.192C321.958 165.133 319.654 155.363 319.654 141.88C319.654 128.397 321.958 118.627 326.566 112.568C331.174 106.509 338.812 103.48 349.478 103.48C360.145 103.48 367.782 106.509 372.39 112.568C376.998 118.627 379.302 128.397 379.302 141.88C379.302 155.363 376.998 165.133 372.39 171.192ZM359.899 237.752L377.307 275H373.083L355.163 236.6C355.334 236.515 356.059 236.173 357.339 235.576C358.704 234.893 359.643 234.424 360.155 234.168C360.667 233.827 361.52 233.272 362.715 232.504C363.91 231.736 364.806 231.011 365.403 230.328C366 229.56 366.64 228.707 367.323 227.768C368.091 226.744 368.646 225.635 368.987 224.44C369.328 223.16 369.499 221.795 369.499 220.344C369.499 214.968 366.939 211 361.819 208.44C356.699 205.88 350.342 204.6 342.747 204.6H332.507V275H328.667V200.76H342.747C352.816 200.76 360.411 202.509 365.531 206.008C370.736 209.507 373.339 214.285 373.339 220.344C373.339 224.269 372.016 227.768 369.371 230.84C366.726 233.827 363.568 236.131 359.899 237.752ZM328.729 371V296.76H332.569V371H328.729ZM376.089 371L336.665 331.832L371.993 296.76H377.497L342.169 331.832L381.593 371H376.089ZM348.188 391.224C358.77 391.224 366.279 393.571 370.716 398.264L368.156 401.08C364.06 397.069 357.575 395.064 348.7 395.064C335.388 395.064 328.732 400.355 328.732 410.936C328.732 415.032 330.354 418.317 333.596 420.792C336.839 423.181 340.764 425.016 345.372 426.296C350.066 427.576 354.716 428.941 359.324 430.392C364.018 431.757 367.986 434.019 371.228 437.176C374.471 440.248 376.092 444.301 376.092 449.336C376.092 455.224 373.66 459.917 368.796 463.416C363.932 466.915 356.892 468.664 347.676 468.664C343.154 468.664 338.674 468.067 334.236 466.872C329.884 465.677 326.642 463.928 324.508 461.624L327.068 458.808C331.42 462.819 338.119 464.824 347.164 464.824C355.442 464.824 361.671 463.288 365.852 460.216C370.119 457.144 372.252 453.56 372.252 449.464C372.252 445.197 370.631 441.741 367.388 439.096C364.146 436.451 360.178 434.488 355.484 433.208C350.876 431.843 346.226 430.477 341.532 429.112C336.924 427.661 332.999 425.443 329.756 422.456C326.514 419.469 324.892 415.544 324.892 410.68C324.892 404.109 327.068 399.245 331.42 396.088C335.858 392.845 341.447 391.224 348.188 391.224Z" fill="black"/>
<path d="M14.3288 26.544C14.3288 18.2667 16.4195 12.2933 20.6008 8.62399C24.7822 4.95466 31.5662 3.12 40.9528 3.12C47.5235 3.12 52.8142 4.82666 56.8248 8.24C60.8355 11.6533 63.7368 16.8587 65.5288 23.856L53.6248 32.816H47.3528L61.1768 22.448C59.3848 16.7307 56.7822 12.72 53.3688 10.416C50.0408 8.112 45.9022 6.96 40.9528 6.96C37.5395 6.96 34.6382 7.17333 32.2488 7.6C29.9448 8.02666 27.5982 8.88 25.2088 10.16C22.9048 11.3547 21.1555 13.3173 19.9608 16.048C18.7662 18.7787 18.1688 22.2773 18.1688 26.544C18.1688 30.2987 19.8755 33.6267 23.2888 36.528C26.7875 39.4293 31.0115 41.904 35.9608 43.952C40.9102 46 45.8595 48.0907 50.8088 50.224C55.8435 52.3573 60.0675 55.088 63.4808 58.416C66.9795 61.744 68.7288 65.584 68.7288 69.936C68.7288 78.4693 66.5955 84.8267 62.3288 89.008C58.1475 93.1893 50.9368 95.28 40.6968 95.28C32.3342 95.28 25.7635 93.616 20.9848 90.288C16.2062 86.8747 12.9208 81.6267 11.1288 74.544L14.7128 73.008C16.4195 79.92 19.3208 84.7413 23.4168 87.472C27.5982 90.1173 33.3582 91.44 40.6968 91.44C48.8888 91.44 54.9475 89.8613 58.8728 86.704C62.8835 83.5467 64.8888 77.9573 64.8888 69.936C64.8888 66.1813 63.1395 62.8533 59.6408 59.952C56.2275 57.0507 52.0035 54.576 46.9688 52.528C42.0195 50.48 37.0702 48.3893 32.1208 46.256C27.1715 44.1227 22.9475 41.392 19.4488 38.064C16.0355 34.736 14.3288 30.896 14.3288 26.544ZM111.295 95.152C101.994 94.5547 95.2948 91.2267 91.1988 85.168C87.1882 79.024 85.1828 69.5947 85.1828 56.88C85.1828 43.3973 87.4868 33.6267 92.0948 27.568C96.7882 21.5093 104.426 18.48 115.007 18.48C125.588 18.48 133.183 21.5093 137.791 27.568C142.484 33.6267 144.831 43.3973 144.831 56.88C144.831 73.9467 140.948 85.2107 133.183 90.672L131.007 87.6C137.663 83.0773 140.991 72.8373 140.991 56.88C140.991 49.7973 140.394 43.952 139.199 39.344C138.004 34.6507 136.17 31.1093 133.695 28.72C131.306 26.2453 128.66 24.5813 125.759 23.728C122.858 22.7893 119.274 22.32 115.007 22.32C110.74 22.32 107.156 22.7893 104.255 23.728C101.354 24.5813 98.6655 26.2453 96.1908 28.72C93.8015 31.1093 92.0095 34.6507 90.8148 39.344C89.6202 43.952 89.0228 49.7973 89.0228 56.88C89.0228 63.9627 89.6202 69.8507 90.8148 74.544C92.0095 79.152 93.8015 82.6933 96.1908 85.168C98.6655 87.5573 101.354 89.2213 104.255 90.16C107.156 91.0133 110.74 91.44 115.007 91.44C115.007 100.912 116.5 107.312 119.487 110.64C122.559 114.053 127.295 115.76 133.695 115.76V119.6C126.783 119.6 121.45 117.893 117.695 114.48C113.94 111.067 111.807 104.624 111.295 95.152ZM168.565 19.76V56.88C168.565 69.5947 170.57 78.5547 174.581 83.76C178.677 88.88 184.266 91.44 191.349 91.44C198.432 91.44 203.978 88.88 207.989 83.76C212.085 78.5547 214.133 69.5947 214.133 56.88V19.76H217.973V56.88C217.973 82.48 209.098 95.28 191.349 95.28C173.6 95.28 164.725 82.48 164.725 56.88V19.76H168.565ZM247.789 90.16H289.517L263.277 28.336L235.373 94H231.277L263.277 18.48L295.277 94H247.789V90.16ZM312.696 8.24V4.39999H398.328L365.688 94.128L349.048 48.56L332.536 94.128L299.896 4.39999H303.992L332.536 82.864L349.048 37.296L365.688 82.864L392.824 8.24H312.696ZM412.63 94V19.76H416.47V94H412.63ZM459.99 94L420.566 54.832L455.894 19.76H461.398L426.07 54.832L465.494 94H459.99Z" fill="black"/>
</svg>
